<svg width="40" height="40" viewBox="0 0 40 40" fill="none" xmlns="http://www.w3.org/2000/svg">
<path d="M33.5984 10.424L35.0768 9.49996H33.3334H6.66671H4.92331L6.40171 10.424L19.735 18.7573L20 18.9229L20.265 18.7573L33.5984 10.424ZM33.3334 30.5H33.8334V30V13.3333V12.4312L33.0684 12.9093L20 21.077L6.93171 12.9093L6.16671 12.4312V13.3333V30V30.5H6.66671H33.3334ZM33.3334 7.16663C34.8906 7.16663 36.1667 8.44277 36.1667 9.99996V30C36.1667 31.5571 34.8906 32.8333 33.3334 32.8333H6.66671C5.10952 32.8333 3.83337 31.5571 3.83337 30V9.99996C3.83337 8.44277 5.10952 7.16663 6.66671 7.16663H33.3334Z" fill="white" stroke="white"/>
</svg>
